<svg xmlns="http://www.w3.org/2000/svg" xml:space="preserve" width="1.99999in" height="1.99999in" version="1.1" style="shape-rendering:geometricPrecision; text-rendering:geometricPrecision; image-rendering:optimizeQuality; fill-rule:evenodd; clip-rule:evenodd" viewBox="0 0 2000 2000" xmlns:xlink="http://www.w3.org/1999/xlink">
 <defs>
  <style type="text/css">
   
    .fil0 {fill:none}
    .fil11 {fill:#360B4B}
    .fil2 {fill:url(#id0)}
    .fil9 {fill:url(#id1)}
    .fil7 {fill:url(#id2)}
    .fil1 {fill:url(#id3)}
    .fil3 {fill:url(#id4)}
    .fil6 {fill:url(#id5)}
    .fil10 {fill:url(#id6)}
    .fil8 {fill:url(#id7)}
    .fil4 {fill:url(#id8)}
    .fil5 {fill:url(#id9)}
   
  </style>
  <linearGradient id="id0" gradientUnits="objectBoundingBox" x1="0%" y1="50%" x2="100%" y2="50%">
   <stop offset="0" style="stop-opacity:1; stop-color:#7959DE"></stop>
   <stop offset="1" style="stop-opacity:1; stop-color:#1AA1FF"></stop>
  </linearGradient>
  <linearGradient id="id1" gradientUnits="userSpaceOnUse" xlink:href="#id0" x1="1707.15" y1="1026.66" x2="1825.9" y2="1026.66">
  </linearGradient>
  <linearGradient id="id2" gradientUnits="objectBoundingBox" xlink:href="#id0" x1="0%" y1="50%" x2="100%" y2="50%">
  </linearGradient>
  <linearGradient id="id3" gradientUnits="objectBoundingBox" xlink:href="#id0" x1="0%" y1="50%" x2="100%" y2="50%">
  </linearGradient>
  <linearGradient id="id4" gradientUnits="objectBoundingBox" xlink:href="#id0" x1="0%" y1="50%" x2="100%" y2="50%">
  </linearGradient>
  <linearGradient id="id5" gradientUnits="userSpaceOnUse" xlink:href="#id0" x1="898.969" y1="1468.19" x2="958.244" y2="1468.19">
  </linearGradient>
  <linearGradient id="id6" gradientUnits="userSpaceOnUse" xlink:href="#id0" x1="1706.83" y1="1539.44" x2="1825.9" y2="1539.44">
  </linearGradient>
  <linearGradient id="id7" gradientUnits="userSpaceOnUse" xlink:href="#id0" x1="1706.83" y1="513.886" x2="1825.9" y2="513.886">
  </linearGradient>
  <linearGradient id="id8" gradientUnits="objectBoundingBox" xlink:href="#id0" x1="0%" y1="50%" x2="100%" y2="50%">
  </linearGradient>
  <linearGradient id="id9" gradientUnits="userSpaceOnUse" xlink:href="#id0" x1="1130.36" y1="1468.19" x2="1189.65" y2="1468.19">
  </linearGradient>
 </defs>
 <rect class="fil0" width="2000" height="2000"></rect>
 <g id="Layer_x0020_1">
  <metadata id="CorelCorpID_0Corel-Layer"></metadata>
  <path class="fil1" d="M574 502c46,0 83,37 83,83 0,46 -37,84 -83,84 -46,0 -84,-38 -84,-84 0,-46 37,-83 84,-83zm271 83c0,-46 37,-83 84,-83 46,0 83,37 83,83 0,46 -37,84 -83,84 -46,0 -84,-38 -84,-84zm232 0c0,-46 37,-83 83,-83 46,0 83,37 83,83 0,46 -37,84 -83,84 -46,0 -83,-38 -83,-84zm199 113l0 -225c0,-11 -9,-20 -20,-20l-1010 0c-10,0 -19,9 -19,20l0 225c0,11 9,19 19,19l1010 0c11,0 20,-8 20,-19zm-561 -140l72 0c34,0 34,54 0,54l-72 0c-34,0 -34,-54 0,-54zm-289 27c0,46 -38,84 -84,84 -46,0 -83,-38 -83,-84 0,-46 37,-83 83,-83 46,0 84,37 84,83z"></path>
  <path class="fil1" d="M1256 894l-1010 0c-10,0 -19,9 -19,20l0 225c0,11 9,20 19,20l1010 0c11,0 20,-9 20,-20l0 -225c0,-11 -9,-20 -20,-20zm-541 106l72 0c34,0 34,53 0,53l-72 0c-34,0 -34,-53 0,-53zm214 110c-46,0 -84,-37 -84,-83 0,-46 37,-84 84,-84 46,0 83,38 83,84 0,46 -37,83 -83,83zm231 0c-46,0 -83,-37 -83,-83 0,-46 37,-84 83,-84 46,0 83,38 83,84 0,46 -37,83 -83,83zm-586 -167c46,0 83,38 83,84 0,46 -37,83 -83,83 -46,0 -84,-37 -84,-83 0,-46 37,-84 84,-84zm-148 84c0,46 -38,83 -84,83 -46,0 -83,-37 -83,-83 0,-46 37,-84 83,-84 46,0 84,38 84,84z"></path>
  <path class="fil1" d="M1256 1336l-1010 0c-10,0 -19,9 -19,20l0 225c0,11 9,20 19,20l1010 0c11,0 20,-9 20,-20l0 -225c0,-11 -9,-20 -20,-20zm-541 106l72 0c34,0 34,53 0,53l-72 0c-34,0 -34,-53 0,-53zm214 110c-46,0 -84,-38 -84,-84 0,-46 37,-83 84,-83 46,0 83,37 83,83 0,46 -37,84 -83,84zm231 0c-46,0 -83,-38 -83,-84 0,-46 37,-83 83,-83 46,0 83,37 83,83 0,46 -37,84 -83,84zm-586 -167c46,0 83,37 83,83 0,46 -37,84 -83,84 -46,0 -84,-38 -84,-84 0,-46 37,-83 84,-83zm-148 83c0,46 -38,84 -84,84 -46,0 -83,-38 -83,-84 0,-46 37,-83 83,-83 46,0 84,37 84,83z"></path>
  <path class="fil2" d="M342 1057c40,0 40,-60 0,-60 -39,0 -40,60 0,60z"></path>
  <path class="fil2" d="M574 997c-40,0 -40,60 0,60 39,0 39,-60 0,-60z"></path>
  <path class="fil3" d="M929 997c-40,0 -40,60 0,60 39,0 39,-60 0,-60z"></path>
  <path class="fil4" d="M1160 997c-39,0 -40,60 0,60 40,0 40,-60 0,-60z"></path>
  <path class="fil5" d="M1160 1498c40,0 40,-60 0,-60 -39,0 -40,60 0,60z"></path>
  <path class="fil6" d="M929 1498c39,0 39,-60 0,-60 -40,0 -40,60 0,60z"></path>
  <path class="fil7" d="M574 1498c39,0 39,-60 0,-60 -40,0 -40,60 0,60z"></path>
  <path class="fil7" d="M342 1498c40,0 40,-60 0,-60 -39,0 -40,60 0,60z"></path>
  <path class="fil2" d="M342 615c40,0 40,-60 0,-60 -39,0 -40,60 0,60z"></path>
  <path class="fil2" d="M574 555c-40,0 -40,60 0,60 39,0 39,-60 0,-60z"></path>
  <path class="fil3" d="M929 555c-40,0 -40,60 0,60 39,0 39,-60 0,-60z"></path>
  <path class="fil4" d="M1160 555c-39,0 -40,60 0,60 40,0 40,-60 0,-60z"></path>
  <path class="fil8" d="M1767 454c-80,0 -80,120 0,120 79,0 79,-120 0,-120z"></path>
  <path class="fil9" d="M1767 967c-80,0 -80,120 0,120 79,0 79,-120 0,-120z"></path>
  <path class="fil10" d="M1767 1600c79,0 79,-121 0,-121 -80,0 -80,121 0,121z"></path>
  <path class="fil11" d="M547 642c-46,0 -84,-37 -84,-84 0,-46 38,-83 84,-83 46,0 83,37 83,83 0,46 -37,84 -83,84zm1193 -41c-53,0 -98,-37 -110,-87l-97 0 -64 63c-5,5 -11,8 -18,8l-149 0 0 86c0,40 -33,73 -73,73l-44 0 0 70 44 0c40,0 73,33 73,73l0 86 328 0c12,-49 57,-86 110,-86 62,0 113,50 113,113 0,63 -51,113 -113,113 -53,0 -98,-37 -110,-86l-328 0 0 86c0,40 -33,73 -73,73l-44 0 0 70 44 0c40,0 73,33 73,73l0 86 149 0c7,0 13,3 18,8l64 63 97 0c12,-50 57,-87 110,-87 62,0 113,51 113,114 0,62 -51,113 -113,113 -53,0 -98,-37 -110,-87l-108 0c-7,0 -14,-2 -19,-7l-64 -64 -137 0 0 86c0,40 -33,73 -73,73l-1009 0c-41,0 -73,-33 -73,-73l0 -225c0,-40 32,-73 73,-73l44 0 0 -70 -44 0c-41,0 -73,-33 -73,-74l0 -225c0,-40 32,-73 73,-73l44 0 0 -70 -44 0c-41,0 -73,-33 -73,-73l0 -225c0,-40 32,-73 73,-73l1009 0c40,0 73,33 73,73l0 86 138 0 63 -64c5,-5 12,-7 19,-7l108 0c12,-50 57,-87 110,-87 62,0 113,51 113,113 0,63 -51,114 -113,114zm0 -174c-80,0 -80,120 0,120 79,0 79,-120 0,-120zm0 513c-79,0 -79,120 0,120 79,0 79,-120 0,-120zm0 513c-80,0 -80,120 0,120 79,0 79,-120 0,-120zm-1520 -1027c-11,0 -20,9 -20,20l0 225c0,11 9,20 20,20l1009 0c11,0 20,-9 20,-20l0 -225c0,-11 -9,-20 -20,-20l-1009 0zm0 442c-11,0 -20,9 -20,19l0 226c0,10 9,19 20,19l1009 0c11,0 20,-9 20,-19l0 -226c0,-10 -9,-19 -20,-19l-1009 0zm0 441c-11,0 -20,9 -20,20l0 225c0,11 9,20 20,20l1009 0c11,0 20,-9 20,-20l0 -225c0,-11 -9,-20 -20,-20l-1009 0zm98 -495l813 0 0 -70 -813 0 0 70zm0 442l813 0 0 -70 -813 0 0 70zm442 212l-71 0c-35,0 -35,-53 0,-53l71 0c34,0 34,53 0,53zm0 -441l-71 0c-35,0 -35,-54 0,-54l71 0c34,0 34,54 0,54zm0 -442l-71 0c-35,0 -35,-53 0,-53l71 0c34,0 34,53 0,53zm142 940c-46,0 -84,-37 -84,-83 0,-47 38,-84 84,-84 46,0 83,37 83,84 0,46 -37,83 -83,83zm0 -114c-39,0 -40,61 0,61 40,0 39,-61 0,-61zm231 114c-46,0 -83,-37 -83,-83 0,-47 37,-84 83,-84 46,0 84,37 84,84 0,46 -38,83 -84,83zm0 -114c-39,0 -39,61 0,61 40,0 40,-61 0,-61zm-818 114c-46,0 -83,-37 -83,-83 0,-47 37,-84 83,-84 47,0 84,37 84,84 0,46 -37,83 -84,83zm0 -114c-39,0 -39,61 0,61 40,0 40,-61 0,-61zm232 114c-46,0 -84,-37 -84,-83 0,-47 38,-84 84,-84 46,0 83,37 83,84 0,46 -37,83 -83,83zm0 -114c-39,0 -40,61 0,61 39,0 39,-61 0,-61zm355 -328c-46,0 -84,-37 -84,-83 0,-46 38,-83 84,-83 46,0 83,37 83,83 0,46 -37,83 -83,83zm0 -113c-39,0 -40,60 0,60 40,0 39,-60 0,-60zm231 113c-46,0 -83,-37 -83,-83 0,-46 37,-83 83,-83 46,0 84,37 84,83 0,46 -38,83 -84,83zm0 -113c-39,0 -39,60 0,60 40,0 40,-60 0,-60zm-818 113c-46,0 -83,-37 -83,-83 0,-46 37,-83 83,-83 47,0 84,37 84,83 0,46 -37,83 -84,83zm0 -113c-39,0 -39,60 0,60 40,0 40,-60 0,-60zm232 113c-46,0 -84,-37 -84,-83 0,-46 38,-83 84,-83 46,0 83,37 83,83 0,46 -37,83 -83,83zm0 -113c-39,0 -40,60 0,60 39,0 39,-60 0,-60zm355 -328c-46,0 -84,-37 -84,-84 0,-46 38,-83 84,-83 46,0 83,37 83,83 0,46 -37,84 -83,84zm0 -114c-39,0 -40,61 0,61 40,0 39,-61 0,-61zm231 114c-46,0 -83,-37 -83,-84 0,-46 37,-83 83,-83 46,0 84,37 84,83 0,46 -38,84 -84,84zm0 -114c-39,0 -39,61 0,61 40,0 40,-61 0,-61zm-818 114c-46,0 -83,-37 -83,-84 0,-46 37,-83 83,-83 47,0 84,37 84,83 0,46 -37,84 -84,84zm0 -114c-39,0 -39,61 0,61 40,0 40,-61 0,-61zm232 0c-39,0 -40,61 0,61 39,0 39,-61 0,-61z"></path>
 </g>
</svg>